<svg xmlns="http://www.w3.org/2000/svg" width="16" height="16" viewBox="0 0 16 16">
    <path fill="#FFF" d="M12.935 3.049C10.203.317 5.781.317 3.05 3.049c-2.732 2.732-2.732 7.154 0 9.886 2.732 2.732 7.154 2.732 9.886 0 2.732-2.732 2.732-7.154 0-9.886zm-.292 8.89c-.327-.292-.676-.55-1.044-.774.243-.84.387-1.766.421-2.727h2.056c-.093 1.296-.591 2.512-1.433 3.5zM1.909 8.438h2.055c.034.961.178 1.887.421 2.727-.368.223-.717.482-1.044.774-.841-.989-1.34-2.205-1.432-3.501zM3.34 4.046c.327.292.676.55 1.044.773-.243.84-.387 1.766-.421 2.728H1.909C2 6.25 2.499 5.034 3.34 4.046zm4.206.865C6.82 4.859 6.12 4.68 5.47 4.385c.378-.973 1.074-2.14 2.077-2.428V4.91zm0 .892v1.744H4.855c.03-.814.146-1.595.338-2.31.738.323 1.532.515 2.354.566zm0 2.635v1.743c-.822.05-1.616.244-2.354.566-.192-.715-.307-1.496-.338-2.31h2.692zm0 2.635v2.955c-1.003-.29-1.7-1.456-2.077-2.429.65-.295 1.35-.474 2.077-.526zm.89 0c.727.052 1.428.231 2.077.526-.378.973-1.074 2.14-2.076 2.429v-2.955zm0-.892V8.438h2.692c-.03.813-.146 1.594-.338 2.31-.738-.323-1.532-.516-2.353-.567zm0-2.634V5.803c.822-.05 1.616-.243 2.354-.566.192.715.307 1.496.338 2.31H8.438zm0-2.636V1.957c1.003.289 1.7 1.455 2.077 2.428-.65.295-1.35.474-2.076.526zm2.001-2.51c.57.25 1.103.589 1.58 1.009-.227.2-.467.381-.717.544-.222-.55-.506-1.085-.863-1.553zM4.683 3.954c-.25-.163-.49-.344-.717-.544.477-.42 1.01-.759 1.58-1.009-.357.468-.64 1.003-.863 1.553zm0 8.076c.222.55.506 1.085.863 1.553-.57-.25-1.103-.588-1.58-1.009.228-.2.467-.381.717-.544zm6.618 0c.25.163.49.344.717.544-.477.42-1.01.76-1.58 1.009.357-.468.64-1.003.863-1.553zm.72-4.483c-.035-.962-.179-1.887-.422-2.728.368-.223.717-.481 1.044-.773.842.988 1.34 2.204 1.433 3.5H12.02z"/>
</svg>
