<?xml version="1.0" encoding="UTF-8"?>
<svg width="150px" height="50px" viewBox="0 0 150 50" version="1.1" xmlns="http://www.w3.org/2000/svg" xmlns:xlink="http://www.w3.org/1999/xlink">
    <title>icon-sprite-stores@1x</title>
    <g id="Dark-MVP" stroke="none" stroke-width="1" fill="none" fill-rule="evenodd">
        <g id="icon-sprite-stores">
            <g>
                
                <g id="Play-Store">
                    <path d="M135,35.9903685 C135,38.2056114 133.262081,40 131.112496,40 L3.89257334,40 C1.74400264,40 0,38.2056114 0,35.9903685 L0,4.014866 C0,1.80067002 1.74400264,0 3.89257334,0 L131.111482,0 C133.262081,0 135,1.80067002 135,4.014866 L135,35.9903685 L135,35.9903685 L135,35.9903685 Z" id="Shape" fill="#192133"></path>
                    <path d="M36.1856181,8.59932681 C36.5210526,7.3005508 37.8115667,6.29920441 39.1648715,6.36364749 C39.996022,6.31738066 40.799082,6.69082007 41.3823745,7.26915545 C41.1973072,7.45257038 41.0122399,7.6376377 40.828825,7.82270502 C40.0108935,6.93372093 38.5072215,6.88580171 37.6430233,7.73017136 C36.5276622,8.6869033 36.6995104,10.6879437 37.9569767,11.4513464 C39.1780906,12.3105875 41.2072215,11.573623 41.324541,10.005508 L39.1615667,10.005508 L39.1615667,9.22062424 C40.1364749,9.22392901 41.1113831,9.2123623 42.0862913,9.22723378 C42.1507344,10.0418605 42.0648103,10.9440636 41.4897797,11.5769278 C40.3562424,12.9351897 38.0131579,12.9054468 36.8697062,11.573623 C36.121175,10.7920441 35.9559364,9.62380661 36.1856181,8.59932681 L36.1856181,8.59932681 Z" id="Shape" fill="#B1C3D3"></path>
                    <path d="M42.9620563,6.49253366 C44.1335985,6.49418605 45.3034884,6.49253366 46.4733782,6.49418605 L46.4733782,7.2377601 C45.5645655,7.23941248 44.6557528,7.2377601 43.7485924,7.23941248 C43.74694,7.85740514 43.74694,8.47705018 43.74694,9.09669523 L46.1842105,9.09669523 L46.1842105,9.84026928 C45.3728886,9.84192166 44.5599143,9.84026928 43.74694,9.84026928 L43.74694,11.6562424 C44.6557528,11.6595471 45.5645655,11.6562424 46.4733782,11.6578947 L46.4733782,12.4427785 L42.9620563,12.4427785 C42.9620563,10.4599143 42.9604039,8.47705018 42.9620563,6.49253366 L42.9620563,6.49253366 Z" id="Shape" fill="#B1C3D3"></path>
                    <path d="M47.0517136,6.49418605 C48.4149327,6.49253366 49.7781518,6.49253366 51.1413709,6.49418605 L51.1413709,7.2377601 L49.4889841,7.2377601 C49.4873317,8.97276622 49.4906365,10.7077723 49.4889841,12.4427785 L48.7041004,12.4427785 L48.7041004,7.2377601 L47.0517136,7.2377601 C47.0500612,6.98990208 47.0500612,6.74204406 47.0517136,6.49418605 L47.0517136,6.49418605 Z" id="Shape" fill="#B1C3D3"></path>
                    <path d="M53.7042228,6.49253366 C53.9768666,6.49253366 54.2528152,6.49418605 54.5287638,6.49253366 L54.5287638,12.4427785 L53.7025704,12.4427785 C53.7025704,10.4599143 53.700918,8.47705018 53.7042228,6.49253366 L53.7042228,6.49253366 Z" id="Shape" fill="#B1C3D3"></path>
                    <path d="M55.1897185,6.49253366 C56.5529376,6.49418605 57.9161567,6.49253366 59.2793758,6.49418605 L59.2793758,7.2377601 C58.729131,7.2377601 58.1788862,7.2377601 57.6286414,7.23941248 C57.6253366,8.9744186 57.6302938,10.7094247 57.6253366,12.4444308 C57.3642595,12.4427785 57.1031824,12.4427785 56.8421053,12.4427785 L56.8421053,7.2377601 C56.2902081,7.2377601 55.7399633,7.2377601 55.1897185,7.23941248 L55.1897185,6.49253366 L55.1897185,6.49253366 Z" id="Shape" fill="#B1C3D3"></path>
                    <path d="M63.5210526,6.53219094 C64.5868421,6.17362301 65.8889229,6.34216646 66.705202,7.16175031 C67.9891065,8.31181151 68.0105875,10.5656671 66.7465116,11.7372093 C65.7682987,12.726989 64.0828641,12.8492656 62.9328029,12.099082 C61.903366,11.4463892 61.3861689,10.1492656 61.5861077,8.95954712 C61.7315177,7.88219094 62.4949204,6.90563035 63.5210526,6.53219094 Z M64.0018972,7.20471236 C64.8958384,6.93206854 65.9335373,7.30550796 66.4523868,8.08212974 C67.1645655,9.12974296 66.9315789,10.7887393 65.8096083,11.4596083 C64.8660955,12.0974296 63.4731334,11.8313953 62.822093,10.9011016 C61.8818849,9.67668299 62.4618727,7.60293758 64.0018972,7.20471236 Z" id="Combined-Shape" fill="#B1C3D3"></path>
                    <path d="M68.5757038,6.49253366 C68.8929621,6.49418605 69.2118727,6.49418605 69.5307834,6.49749082 C70.4792534,8.01107711 71.4227662,9.52796818 72.3728886,11.0399021 C72.3778458,9.5246634 72.3728886,8.00942472 72.374541,6.49253366 C72.6356181,6.49253366 72.8966952,6.49418605 73.1594247,6.49418605 L73.1594247,12.4411261 C72.8834761,12.4427785 72.6091799,12.4427785 72.3348837,12.4444308 C71.3054468,10.8498776 70.3470624,9.21070991 69.3011016,7.62607099 C69.4299878,9.22723378 69.3258874,10.8383109 69.3589351,12.4444308 C69.0962056,12.4427785 68.8351285,12.4427785 68.5740514,12.4427785 C68.5740514,10.4582619 68.572399,8.4753978 68.5757038,6.49253366 L68.5757038,6.49253366 Z" id="Shape" fill="#B1C3D3"></path>
                    <path d="M37.7008568,18.5400857 C39.1318237,17.1719094 41.170869,16.4762546 43.1421665,16.6828029 C44.652448,16.79847 46.0735006,17.5123011 47.155814,18.5582619 C46.7063647,19.0077111 46.2420441,19.4439412 45.8256426,19.9264382 C44.797858,18.9895349 43.4032436,18.4310282 42.0020196,18.5946144 C40.2323133,18.7350673 38.6162791,19.9561812 37.9668911,21.6019584 C37.180355,23.4608935 37.6264994,25.7824969 39.1103427,27.1655447 C40.8420441,28.9236842 43.9914933,28.9963892 45.7578947,27.2531212 C46.4337209,26.6367809 46.7328029,25.7345777 46.8848225,24.8571603 C45.3993268,24.8092411 43.9121787,24.8488984 42.4250306,24.8356793 L42.4250306,22.8941248 C44.5268666,22.8875153 46.6270502,22.9023868 48.7288862,22.8875153 C48.980049,24.4440636 48.7735006,26.1129743 47.9886169,27.496022 C47.0500612,29.0955324 45.3200122,30.1844553 43.4792534,30.3810894 C41.7640759,30.627295 39.9629743,30.2125459 38.5336597,29.2293758 C36.6631579,27.9669523 35.4552632,25.7411873 35.5213586,23.4724602 C35.5081395,21.6168299 36.3425949,19.7942472 37.7008568,18.5400857 L37.7008568,18.5400857 Z" id="Shape" fill="#B1C3D3"></path>
                    <polygon id="Shape" fill="#B1C3D3" points="79.3145655 17.3173195 81.2974296 17.3173195 81.2974296 30.2885557 79.3145655 30.2885557"></polygon>
                    <path d="M95.1774786,17.3173195 C96.6662791,17.3189718 98.1550796,17.3140147 99.6455324,17.3189718 C100.706365,17.3288862 101.780416,17.6692778 102.588433,18.3698898 C103.498898,19.1283354 104.006181,20.323011 103.938433,21.5028152 C103.928519,22.8941248 103.062668,24.1995104 101.834945,24.8274174 C100.417197,25.6156059 98.7482864,25.3132191 97.2033048,25.372705 C97.2,26.9837821 97.2016524,28.5948592 97.2016524,30.2059364 C96.5258262,30.2059364 95.8516524,30.2059364 95.179131,30.2075887 C95.1758262,25.9097307 95.1774786,21.6135251 95.1774786,17.3173195 Z M97.2016524,19.301836 C98.1236842,19.3134027 99.045716,19.2753978 99.9677479,19.3167075 C101.195471,19.3811506 102.193513,20.7625459 101.753978,21.9357405 C101.50612,22.7140147 100.774113,23.3171359 99.9528764,23.3716646 C99.0358017,23.4179315 98.1187271,23.3749694 97.2016524,23.3881885 L97.2016524,19.301836 Z" id="Combined-Shape" fill="#B1C3D3"></path>
                    <path d="M105.504896,30.2059364 C105.504896,25.9097307 105.503244,21.6135251 105.504896,17.3173195 L107.611689,17.3173195 L107.611689,30.2059364 C106.907772,30.2059364 106.205508,30.2075887 105.504896,30.2059364 L105.504896,30.2059364 Z" id="Shape" fill="#B1C3D3"></path>
                    <path d="M111.57907,21.1822521 C112.995165,20.7625459 114.632681,20.9195226 115.858752,21.7771114 C116.822093,22.4479804 117.322766,23.6360465 117.317809,24.7894125 C117.322766,26.5938188 117.317809,28.3998776 117.319461,30.2059364 C116.630416,30.2059364 115.941371,30.2075887 115.252326,30.2059364 C115.250673,29.8391065 115.252326,29.473929 115.26224,29.1070991 C113.963464,31.1560588 110.505018,30.8272338 109.406181,28.7485312 C108.860894,27.6926561 109.012913,26.2947368 109.868849,25.44541 C111.278335,24.0788862 113.560282,23.928519 115.291983,24.7365361 C115.239106,22.7123623 112.0847,22.2116891 111.194064,23.9136475 C110.566157,23.6310894 109.910159,23.4113219 109.303733,23.0858017 C109.782925,22.1869033 110.587638,21.4615055 111.57907,21.1822521 Z M111.90459,26.3195226 C112.952203,25.7643207 114.249327,25.8948592 115.282069,26.4269278 C115.08213,27.7108323 113.814749,28.7716646 112.499449,28.5684211 C111.957466,28.4891065 111.35104,28.1900245 111.220502,27.6116891 C111.124663,27.0911873 111.441922,26.5541616 111.90459,26.3195226 Z" id="Combined-Shape" fill="#B1C3D3"></path>
                    <path d="M53.2960832,21.6019584 C54.8162791,21.3045288 56.4984088,21.7705018 57.546022,22.9387393 C59.1785802,24.6787026 59.0414321,27.7405753 57.2221542,29.298776 C55.5201958,30.8437576 52.6367809,30.7694002 51.0273562,29.123623 C49.2345165,27.3836597 49.3485312,24.125153 51.2983476,22.5454712 C51.8700734,22.0695838 52.5657283,21.7473684 53.2960832,21.6019584 Z M53.4613219,23.4278458 C54.9864749,22.847858 56.6900857,24.1962056 56.6801714,25.7775398 C56.8222766,27.0350061 55.9399021,28.3255202 54.6873929,28.5750306 C53.5059364,28.8509792 52.2666463,28.0330477 51.898164,26.9110771 C51.4189718,25.5825581 52.0600979,23.8706854 53.4613219,23.4278458 Z" id="Combined-Shape" fill="#B1C3D3"></path>
                    <path d="M62.8782742,21.6118727 C64.4364749,21.2896573 66.1764382,21.7705018 67.2323133,22.9916157 C68.7954712,24.7216646 68.674847,27.6943084 66.9134027,29.2442472 C65.1321297,30.947858 61.9529376,30.7561812 60.4029988,28.8344553 C58.9141983,27.0862301 59.0827417,24.1714198 60.822705,22.651224 C61.3960832,22.1274174 62.1165239,21.7671971 62.8782742,21.6118727 Z M63.1839657,23.3997552 C64.5174419,22.9602203 66.0029376,23.9483476 66.2574051,25.2933905 C66.6143207,26.6136475 65.8376989,28.196634 64.471175,28.5370257 C63.19388,28.9385557 61.7910037,28.0049572 61.4853121,26.7408813 C61.078825,25.4123623 61.800918,23.7831089 63.1839657,23.3997552 Z" id="Combined-Shape" fill="#B1C3D3"></path>
                    <path d="M71.2905753,22.2249082 C72.6554468,21.2533048 74.7291922,21.2400857 75.9370869,22.4810282 C75.9304774,22.2463892 75.9271726,22.0117503 75.9238678,21.7787638 L77.8274174,21.7787638 L77.8274174,29.9250306 C77.804284,31.0965728 77.5035496,32.3441248 76.6674419,33.2099755 C75.6198286,34.3088127 73.9360465,34.5864137 72.5034272,34.2493268 C71.2013464,33.9502448 70.1652999,32.9373317 69.623317,31.7426561 C70.2,31.494798 70.7799878,31.2535496 71.3599755,31.0156059 C71.5979192,31.4435741 71.8656059,31.874847 72.2787026,32.1590575 C73.2635251,32.9075887 74.8960832,32.6944308 75.5520808,31.6104651 C75.9684823,30.9594247 75.9337821,30.1580171 75.9370869,29.4160955 C75.1935129,30.204284 74.0550184,30.55459 72.9925337,30.371175 C71.2773562,30.1299266 69.8381273,28.7402693 69.4316401,27.073011 C68.9755814,25.2768666 69.7241126,23.2361689 71.2905753,22.2249082 Z M73.3775398,23.3287026 C75.0679315,23.0197062 76.3716646,24.8703794 76.0395349,26.4219706 C75.9271726,27.7108323 74.6779682,28.8641983 73.3544064,28.5882497 C72.1167687,28.40153 71.2426561,27.1688494 71.29388,25.9510404 C71.2657895,24.7348837 72.1415545,23.5121175 73.3775398,23.3287026 Z" id="Combined-Shape" fill="#B1C3D3"></path>
                    <path d="M83.7429621,22.6132191 C84.9293758,21.4780294 86.8329253,21.1822521 88.305202,21.9142595 C89.4585679,22.5041616 90.202142,23.6641371 90.5689718,24.876989 C88.596022,25.6949204 86.6197674,26.5062424 84.6501224,27.3307834 C85.0070379,27.9322521 85.553978,28.4593635 86.2678091,28.5750306 C87.3121175,28.8228886 88.3944308,28.2643819 88.9595471,27.3869645 C89.480049,27.7290086 89.9988984,28.0710526 90.5111383,28.4263158 C89.9724602,29.196328 89.2222766,29.8324969 88.3299878,30.1464504 C86.8114443,30.6966952 84.9541616,30.4042228 83.7859241,29.2508568 C81.9567319,27.5588127 81.9798654,24.3449204 83.7429621,22.6132191 Z M84.3064146,25.7990208 C84.3031212,24.7001836 85.0219094,23.629437 86.1042228,23.3468788 C86.9006732,23.0907589 87.8408813,23.4311506 88.253978,24.1664627 C86.9353733,24.7034884 85.6233782,25.2603427 84.3064146,25.7990208 Z" id="Combined-Shape" fill="#B1C3D3"></path>
                    <path d="M118.000245,21.4515912 C118.763647,21.4449816 119.528703,21.4482864 120.293758,21.4482864 C121.128213,23.4625459 121.956059,25.4801102 122.788862,27.496022 C123.562179,25.4817625 124.342105,23.4691554 125.110465,21.4532436 C125.900306,21.4433293 126.691799,21.4499388 127.483293,21.4482864 C125.634272,25.7180539 123.768727,29.9828641 121.913097,34.2509792 C121.169523,34.2559364 120.425949,34.2575887 119.682375,34.2493268 C120.366463,32.8051408 121.032375,31.3510404 121.719767,29.9085067 C120.487087,27.0862301 119.23623,24.2722154 118.000245,21.4515912 L118.000245,21.4515912 Z" id="Shape" fill="#B1C3D3"></path>
                    <g id="Group" transform="translate(10.905753, 10.053856)">
                        <polygon id="Shape" points="10.7560211 10.2477487 13.920901 7.08165763 13.9201638 7.08165763 10.7560211 10.2477487 0.656861877 0.141633153 0.656124659 0.141633153 10.7560211 10.2492241 0.639905847 20.3708308 0.639905847 20.3708308 10.7560211 10.2492241 13.9349082 13.429331 13.9363826 13.429331"></polygon>
                        <path d="M13.9201638,7.08165763 L1.58944356,0.297282086 C1.2407391,0.106224864 0.917100085,0.0619645043 0.656861877,0.142370825 L10.7567583,10.2477487 L13.9201638,7.08165763 L13.9201638,7.08165763 Z" id="Shape" fill="#D7E69D" fill-rule="nonzero"></path>
                        <path d="M13.9363826,13.429331 L18.1451643,11.1123011 C18.9988636,10.6401906 18.9988636,9.87374869 18.1451643,9.40532654 L13.920901,7.08165763 L10.7567583,10.2477487 L13.9363826,13.429331 L13.9363826,13.429331 Z" id="Shape" fill="#FEEB74" fill-rule="nonzero"></path>
                        <path d="M0.656124659,0.141633153 C0.28161755,0.258923107 0.0383353733,0.639562205 0.0383353733,1.21420921 L0.0405470295,19.3034184 C0.0405470295,19.8714264 0.276457019,20.2454264 0.639905847,20.3700931 L10.7567583,10.2470111 L0.656124659,0.141633153 L0.656124659,0.141633153 Z" id="Shape" fill="#7DBEBB" fill-rule="nonzero"></path>
                        <path d="M0.639905847,20.3708308 C0.903092929,20.4600892 1.2326297,20.4173042 1.58944356,20.2225586 L13.9356454,13.429331 L10.7567583,10.2484864 L0.639905847,20.3708308 L0.639905847,20.3708308 Z" id="Shape" fill="#F36F56" fill-rule="nonzero"></path>
                    </g>
                </g>
            </g>
        </g>
    </g>
</svg>